<?xml version="1.0" standalone="no"?><!DOCTYPE svg PUBLIC "-//W3C//DTD SVG 1.1//EN" "http://www.w3.org/Graphics/SVG/1.1/DTD/svg11.dtd"><svg t="1638434581657" class="icon" viewBox="0 0 1024 1024" version="1.1" xmlns="http://www.w3.org/2000/svg" p-id="619" xmlns:xlink="http://www.w3.org/1999/xlink" width="200" height="200"><defs><style type="text/css"></style></defs><path d="M447.36 36.288a487.136 487.136 0 0 1 148.736 3.04c92.8 16.576 180.64 60.8 248.32 126.528a478.56 478.56 0 0 1 130.272 218.368 480.416 480.416 0 0 1-2.944 265.856 495.232 495.232 0 0 1-44.16 102.24c-6.304 10.368-12.256 20.992-19.616 30.656 1.856-6.912 5.44-13.184 7.168-20.128a75.936 75.936 0 0 0-4.416-50.24 75.84 75.84 0 0 0-103.776-35.968c-7.36 3.52-13.44 9.088-19.904 13.952 27.136-42.208 44.8-90.56 50.528-140.48a327.552 327.552 0 0 0-23.744-165.984 326.048 326.048 0 0 0-87.04-120c-36.48-32-80.32-55.296-126.944-68.416a329.056 329.056 0 0 0-272.48 44.16 334.848 334.848 0 0 0-83.68 81.6c1.376-7.616 4-14.976 4.352-22.72a75.84 75.84 0 0 0-68.992-81.216 75.456 75.456 0 0 0-54.976 17.28c-3.52 3.2-7.008 6.528-10.56 9.728a474.336 474.336 0 0 1 81.472-92.992 480.864 480.864 0 0 1 252.416-115.264zM78.144 306.688c7.2-14.912 14.656-29.824 23.68-43.712-0.96 6.88-3.712 13.312-4.416 20.224a75.68 75.68 0 0 0 62.144 84.48 75.264 75.264 0 0 0 56.992-13.088c3.232-2.656 6.656-5.056 10.336-7.04-8.864 16-16.896 32.544-23.232 49.728a328.64 328.64 0 0 0-11.328 192.768 330.4 330.4 0 0 0 56.704 119.552 328.704 328.704 0 0 0 283.84 130.112 328.416 328.416 0 0 0 238.592-127.104c-0.64 4.928-2.176 9.6-3.52 14.4a75.2 75.2 0 0 0 3.776 45.664 75.52 75.52 0 0 0 45.248 42.816c26.4 9.44 57.984 2.624 77.632-17.44 2.016-2.048 4.384-3.68 6.656-5.344a479.296 479.296 0 0 1-142.496 131.136 481.792 481.792 0 0 1-207.744 66.56c-45.28 3.648-91.104 0.992-135.584-8.192-94.496-19.392-182.976-67.776-249.504-137.76-63.296-65.152-106.592-149.056-124.576-237.984-9.6-47.904-11.744-97.28-6.592-145.824A478.976 478.976 0 0 1 78.08 306.688z" fill="#38CEFF" p-id="620"></path><path d="M124.064 234.816c15.04-12.8 35.328-19.04 54.976-17.28A75.648 75.648 0 0 1 248 298.752c-0.32 7.744-2.976 15.104-4.352 22.72-5.056 9.056-10.88 17.6-16.832 26.048a64.512 64.512 0 0 0-10.336 7.072A75.712 75.712 0 0 1 97.376 283.2c0.704-6.912 3.456-13.344 4.416-20.224 3.52-6.336 7.168-12.736 11.712-18.432 3.552-3.2 7.04-6.528 10.56-9.728z m682.88 441.824a75.84 75.84 0 0 1 108.16 86.208c-1.664 6.944-5.28 13.216-7.136 20.16-1.888 3.456-4.16 6.72-6.72 9.696-2.304 1.664-4.672 3.296-6.688 5.344-19.648 20.064-51.232 26.88-77.632 17.44a75.52 75.52 0 0 1-45.248-42.816 75.2 75.2 0 0 1-3.744-45.664c1.28-4.8 2.848-9.472 3.488-14.4 5.184-7.36 9.92-15.04 15.616-22.016 6.496-4.864 12.512-10.464 19.904-13.952z" fill="#0B99FF" p-id="621"></path><path d="M372.064 297.6a74.016 74.016 0 0 1 72.704-13.376c10.944 3.712 20.16 10.88 29.728 17.12 62.336 41.792 124.672 83.52 187.04 125.28 10.24 6.592 19.904 14.112 30.72 19.744a74.528 74.528 0 0 1 34.336 90.304c-5.6 16-16.832 29.952-31.36 38.72-14.24 7.84-27.296 17.568-40.96 26.368-64.192 43.008-128.448 85.888-192.704 128.8a73.888 73.888 0 0 1-113.408-77.984 73.92 73.92 0 0 1 31.136-44.64c48-32.064 95.904-64.192 143.968-96.16-43.744-29.248-87.488-58.528-131.2-87.84-6.144-4.192-12.544-8.064-18.368-12.704a73.824 73.824 0 0 1-1.6-113.6z" fill="#FF4A4A" p-id="622"></path></svg>