<?xml version="1.0" standalone="no"?><!DOCTYPE svg PUBLIC "-//W3C//DTD SVG 1.1//EN" "http://www.w3.org/Graphics/SVG/1.1/DTD/svg11.dtd"><svg t="1638434598045" class="icon" viewBox="0 0 1026 1024" version="1.1" xmlns="http://www.w3.org/2000/svg" p-id="913" xmlns:xlink="http://www.w3.org/1999/xlink" width="200.390625" height="200"><defs><style type="text/css"></style></defs><path d="M524.8 934.4c-148.48 0-284.16-7.68-419.84-30.72-66.56-15.36-104.96-61.44-104.96-122.88 0-17.92 7.68-28.16 25.6-28.16h43.52c17.92 0 28.16 5.12 33.28 23.04 7.68 25.6 28.16 38.4 53.76 40.96 64 7.68 128 17.92 192 20.48 102.4 5.12 202.24 7.68 304.64 0 74.24-5.12 145.92-10.24 220.16-23.04 17.92-2.56 35.84-12.8 38.4-30.72 7.68-28.16 25.6-33.28 51.2-33.28 64 0 66.56 2.56 51.2 64-10.24 38.4-30.72 66.56-71.68 76.8-64 17.92-128 25.6-192 30.72-81.92 10.24-158.72 15.36-225.28 12.8z m2.56-842.24c115.2-7.68 240.64 5.12 368.64 25.6 74.24 12.8 110.08 30.72 125.44 117.76 5.12 23.04-5.12 33.28-28.16 33.28-15.36 0-28.16-2.56-43.52-2.56-17.92 0-28.16-7.68-35.84-23.04-7.68-23.04-28.16-35.84-51.2-38.4-151.04-20.48-299.52-33.28-450.56-23.04-87.04 5.12-174.08 15.36-261.12 25.6-20.48 0-38.4 10.24-43.52 33.28-7.68 25.6-25.6 30.72-48.64 28.16H28.16c-20.48 0-28.16-10.24-28.16-30.72C0 184.32 33.28 138.24 87.04 128c140.8-30.72 284.16-40.96 440.32-35.84z m-115.2 422.4V640c0 15.36-2.56 28.16-5.12 43.52-5.12 17.92-30.72 35.84 7.68 51.2 10.24 2.56 7.68 23.04 2.56 35.84-2.56 12.8-15.36 15.36-25.6 15.36-28.16-2.56-61.44 2.56-79.36-30.72-5.12-10.24-15.36-10.24-23.04-10.24-10.24 0-20.48 0-30.72-2.56-94.72-12.8-107.52-28.16-107.52-122.88v-243.2c0-43.52 15.36-64 58.88-76.8 51.2-15.36 102.4-15.36 153.6 2.56 35.84 12.8 51.2 33.28 51.2 76.8-2.56 40.96-2.56 89.6-2.56 135.68z m-104.96 0v-133.12c0-17.92-2.56-33.28-25.6-33.28-20.48 0-28.16 10.24-28.16 30.72v266.24c0 20.48 5.12 35.84 28.16 35.84 25.6 0 25.6-17.92 25.6-38.4v-128z m435.2-76.8c12.8-40.96 25.6-74.24 33.28-107.52 7.68-25.6 17.92-35.84 46.08-35.84 79.36 0 69.12 5.12 48.64 64-17.92 53.76-35.84 107.52-56.32 158.72-23.04 51.2-15.36 104.96-17.92 158.72 0 17.92 7.68 40.96-15.36 48.64-25.6 10.24-51.2 2.56-76.8-2.56-5.12-2.56-7.68-10.24-7.68-15.36v-5.12c20.48-130.56-46.08-243.2-84.48-360.96-12.8-38.4-10.24-43.52 30.72-43.52h28.16c23.04-2.56 33.28 7.68 40.96 28.16 5.12 35.84 15.36 69.12 30.72 112.64z m281.6 76.8V691.2c0 23.04-7.68 35.84-33.28 35.84-66.56 0-66.56 2.56-66.56-66.56V335.36c0-30.72 10.24-40.96 40.96-38.4 61.44 0 61.44 0 61.44 61.44l-2.56 156.16z m-460.8 2.56v184.32c0 20.48-7.68 28.16-25.6 28.16-76.8 5.12-76.8 5.12-76.8-69.12V343.04c0-40.96 2.56-43.52 43.52-46.08h17.92c30.72-2.56 40.96 10.24 38.4 38.4 2.56 61.44 2.56 120.32 2.56 181.76zM97.28 576v120.32c0 23.04-10.24 30.72-30.72 30.72C0 729.6 0 732.16 0 665.6v-204.8c0-25.6 7.68-35.84 33.28-35.84 74.24 0 61.44-5.12 61.44 58.88 2.56 30.72 2.56 61.44 2.56 92.16z m0-227.84c0 51.2 0 51.2-46.08 51.2-51.2 0-51.2 0-51.2-51.2 0-48.64 0-48.64 51.2-48.64 46.08-2.56 46.08-2.56 46.08 48.64z" fill="#42BD56" p-id="914"></path></svg>